<?xml version="1.0" encoding="UTF-8"?>
<svg id="Layer_4" data-name="Layer 4" xmlns="http://www.w3.org/2000/svg" viewBox="0 0 512 512">
  <style>path { fill: #1A2549; }</style>
  <path d="M105.53,338.47h-11.51v73.71h11.51v-73.71Z"/>
  <path d="M138.15,338.47h-23.5v73.71h23.5v-73.71Z"/>
  <path d="M185.18,134.73v-1.47h-.78l-.04-1h-.78l-.04-1.59h-.77v-14.45h5.12c.09.19.17.37.17.45v.78h3.12v-.67c.08-.13.27-.39.41-.58.58-.77,1.3-1.73,1.3-2.7s-.66-1.79-1.2-2.49c-.2-.25-.48-.63-.52-.69v-.78h-3.12v.78c0,.17-.05.34-.15.54h-5.14v-6.49c.19-.09.41-.19.49-.19h.78v-3.11h-.67c-.13-.08-.39-.27-.59-.41-.77-.58-1.73-1.29-2.7-1.29s-1.79.66-2.49,1.19c-.25.19-.63.48-.7.51h-.78v3.11h.78c.16,0,.3.05.49.13v6.56h-5.05c-.1-.21-.21-.44-.21-.54v-.78h-3.12v.67c-.08.13-.27.39-.41.58-.58.77-1.3,1.73-1.3,2.7s.66,1.79,1.2,2.49c.2.25.48.63.52.69v.78h3.12v-.78c0-.15.04-.29.11-.45h5.15v14.45h-.89v1.59h-.82v1h-.82v1.83c-58.34,4.37-94.08,47.04-94.08,99.04,0,1.57-.06,3.12-.09,4.66h-.56v.08c-2.23,0-4.04,1.81-4.04,4.03s1.81,4.03,4.04,4.03v17.36c-2.23,0-4.04,1.81-4.04,4.03s1.81,4.03,4.04,4.03c.15,0,.3-.03.44-.05v.09h12.18v43.56h-58.22C5.76,315.97,17.27,333.2,0,333.2v6.22h34.54v72.76h30.22v-72.76h7.67v72.76h12.47v-79c15.65-.32,16.43-15.89,29.92-17.13h21.59v-43.65h46.83v-27.76h-33.33l5.72-3.63v-15.77c0-34.36,29.55-62.21,66.51-62.21,26.85,0,50.09,16.03,60.75,37.31-14.47-38.17-52.73-65.48-97.71-65.62h0Z"/>
  <path d="M158.39,321.34c1.62,1.04,3.95,1.82,6.44,1.82,3.7,0,5.86-1.95,5.86-4.77,0-2.57-1.49-4.11-5.28-5.51-4.57-1.66-7.4-4.06-7.4-7.96,0-4.36,3.62-7.59,9.06-7.59,2.83,0,4.95.66,6.15,1.36l-1,2.95c-.88-.54-2.74-1.33-5.28-1.33-3.82,0-5.28,2.28-5.28,4.19,0,2.61,1.7,3.9,5.57,5.39,4.73,1.82,7.11,4.11,7.11,8.21,0,4.31-3.16,8.08-9.77,8.08-2.7,0-5.65-.83-7.15-1.82l.95-3.03h.02Z"/>
  <path d="M197.08,315.53c0,7.42-5.2,10.66-10.02,10.66-5.41,0-9.64-3.98-9.64-10.33,0-6.67,4.45-10.62,9.98-10.62s9.68,4.19,9.68,10.28h0ZM181.17,315.74c0,4.4,2.49,7.71,6.07,7.71s6.11-3.27,6.11-7.8c0-3.4-1.7-7.67-6.02-7.67s-6.15,3.98-6.15,7.76h0Z"/>
  <path d="M217.95,320.22c0,2.11.04,3.94.16,5.51h-3.24l-.21-3.27h-.09c-.91,1.61-3.08,3.73-6.65,3.73-3.16,0-6.94-1.79-6.94-8.8v-11.73h3.66v11.07c0,3.81,1.2,6.43,4.49,6.43,2.45,0,4.16-1.7,4.82-3.36.21-.5.34-1.16.34-1.86v-12.28h3.66v14.56h0Z"/>
  <path d="M227.85,300.85v4.81h5.23v2.78h-5.23v10.82c0,2.49.7,3.9,2.74,3.9,1,0,1.58-.09,2.12-.25l.16,2.78c-.7.25-1.83.5-3.24.5-1.7,0-3.08-.58-3.95-1.54-1-1.12-1.41-2.9-1.41-5.27v-10.95h-3.12v-2.78h3.12v-3.73l3.57-1.08h0Z"/>
  <path d="M236.61,296.29h3.66v12.57h.09c.58-1.04,1.49-1.99,2.62-2.61,1.08-.62,2.37-1,3.74-1,2.7,0,7.02,1.66,7.02,8.54v11.94h-3.66v-11.53c0-3.24-1.2-5.93-4.66-5.93-2.37,0-4.2,1.66-4.91,3.61-.21.54-.25,1.08-.25,1.74v12.11h-3.66v-29.45h0Z"/>
  <path d="M271.98,316.94l-2.91,8.8h-3.74l9.56-27.95h4.32l9.56,27.95h-3.87l-2.99-8.8h-9.93,0ZM281.21,314.12l-2.78-8.05c-.63-1.82-1.04-3.49-1.45-5.1h-.09c-.42,1.61-.83,3.36-1.41,5.06l-2.74,8.09h8.48Z"/>
  <path d="M291.44,322.04c1.12.66,3.03,1.41,4.86,1.41,2.62,0,3.87-1.29,3.87-2.99s-1.04-2.65-3.7-3.65c-3.66-1.33-5.36-3.27-5.36-5.68,0-3.24,2.66-5.89,6.94-5.89,2.04,0,3.82.54,4.91,1.25l-.88,2.65c-.79-.5-2.24-1.2-4.12-1.2-2.16,0-3.32,1.25-3.32,2.74,0,1.66,1.16,2.4,3.78,3.44,3.45,1.29,5.28,3.03,5.28,6.01,0,3.56-2.78,6.06-7.49,6.06-2.2,0-4.24-.58-5.65-1.41l.88-2.74h0Z"/>
  <path d="M311.88,300.02c0,1.25-.88,2.24-2.33,2.24-1.33,0-2.2-1-2.2-2.24s.91-2.28,2.29-2.28,2.24,1,2.24,2.28ZM307.81,325.74v-20.08h3.66v20.08h-3.66Z"/>
  <path d="M331.08,320.93c0,1.74.09,3.45.29,4.81h-3.28l-.29-2.53h-.13c-1.12,1.58-3.28,2.99-6.15,2.99-4.07,0-6.15-2.86-6.15-5.76,0-4.85,4.32-7.51,12.1-7.46v-.41c0-1.61-.45-4.65-4.57-4.6-1.91,0-3.87.54-5.27,1.49l-.83-2.45c1.66-1.04,4.12-1.74,6.65-1.74,6.15,0,7.65,4.19,7.65,8.17v7.51h-.02ZM327.55,315.49c-3.99-.09-8.52.62-8.52,4.52,0,2.4,1.58,3.49,3.41,3.49,2.66,0,4.36-1.66,4.95-3.36.13-.41.16-.83.16-1.16v-3.49Z"/>
  <path d="M162.47,341v27.95h-3.66v-27.95h3.66Z"/>
  <path d="M168.49,354.31c0-2.11-.04-3.77-.16-5.43h3.24l.21,3.32h.09c1-1.86,3.33-3.73,6.65-3.73,2.78,0,7.11,1.66,7.11,8.54v11.94h-3.66v-11.57c0-3.24-1.2-5.93-4.66-5.93-2.37,0-4.24,1.7-4.91,3.73-.16.46-.25,1.08-.25,1.7v12.07h-3.66v-14.64h0Z"/>
  <path d="M190.48,365.27c1.12.66,3.03,1.41,4.86,1.41,2.62,0,3.87-1.29,3.87-2.99s-1.04-2.65-3.7-3.65c-3.66-1.33-5.36-3.27-5.36-5.68,0-3.24,2.66-5.89,6.94-5.89,2.04,0,3.82.54,4.91,1.25l-.88,2.65c-.79-.5-2.24-1.2-4.12-1.2-2.16,0-3.33,1.25-3.33,2.74,0,1.66,1.16,2.4,3.78,3.44,3.45,1.29,5.28,3.03,5.28,6.01,0,3.56-2.78,6.06-7.48,6.06-2.2,0-4.24-.58-5.65-1.41l.88-2.74h0Z"/>
  <path d="M211.26,344.07v4.81h5.23v2.78h-5.23v10.82c0,2.49.7,3.9,2.74,3.9,1,0,1.58-.09,2.12-.25l.16,2.78c-.7.25-1.83.5-3.24.5-1.7,0-3.08-.58-3.95-1.54-1-1.12-1.41-2.9-1.41-5.27v-10.95h-3.12v-2.78h3.12v-3.73l3.57-1.08h0Z"/>
  <path d="M224.1,343.24c0,1.25-.88,2.24-2.33,2.24-1.33,0-2.2-1-2.2-2.24s.91-2.28,2.29-2.28,2.24,1,2.24,2.28ZM220.03,368.95v-20.08h3.66v20.08h-3.66Z"/>
  <path d="M233.58,344.07v4.81h5.24v2.78h-5.24v10.82c0,2.49.7,3.9,2.74,3.9,1,0,1.58-.09,2.12-.25l.16,2.78c-.7.25-1.83.5-3.24.5-1.7,0-3.08-.58-3.95-1.54-1-1.12-1.41-2.9-1.41-5.27v-10.95h-3.12v-2.78h3.12v-3.73l3.57-1.08h0Z"/>
  <path d="M259.18,363.44c0,2.11.04,3.94.16,5.51h-3.24l-.21-3.27h-.09c-.91,1.61-3.08,3.73-6.65,3.73-3.16,0-6.94-1.78-6.94-8.79v-11.73h3.66v11.07c0,3.81,1.2,6.43,4.49,6.43,2.45,0,4.16-1.7,4.82-3.36.21-.5.34-1.16.34-1.86v-12.28h3.66v14.56Z"/>
  <path d="M269.07,344.07v4.81h5.24v2.78h-5.24v10.82c0,2.49.7,3.9,2.74,3.9,1,0,1.58-.09,2.12-.25l.16,2.78c-.7.25-1.83.5-3.24.5-1.7,0-3.08-.58-3.95-1.54-1-1.12-1.41-2.9-1.41-5.27v-10.95h-3.12v-2.78h3.12v-3.73l3.57-1.08h0Z"/>
  <path d="M279.63,359.58c.09,4.94,3.2,6.97,6.9,6.97,2.62,0,4.24-.45,5.57-1.04l.66,2.61c-1.29.58-3.53,1.29-6.74,1.29-6.19,0-9.89-4.11-9.89-10.16s3.57-10.78,9.43-10.78c6.61,0,8.31,5.72,8.31,9.42,0,.75-.04,1.29-.12,1.7h-14.14,0ZM290.35,356.97c.04-2.28-.95-5.89-5.07-5.89-3.74,0-5.32,3.36-5.61,5.89h10.68Z"/>
  <path d="M324.27,358.75c0,7.42-5.2,10.66-10.02,10.66-5.4,0-9.64-3.98-9.64-10.33,0-6.67,4.45-10.62,9.98-10.62s9.68,4.19,9.68,10.28h0ZM308.35,358.96c0,4.4,2.49,7.71,6.07,7.71s6.11-3.27,6.11-7.8c0-3.4-1.7-7.67-6.02-7.67s-6.15,3.98-6.15,7.76h0Z"/>
  <path d="M328.68,368.95v-17.29h-2.78v-2.78h2.78v-.95c0-2.82.66-5.39,2.33-7.01,1.37-1.33,3.2-1.86,4.91-1.86,1.33,0,2.41.29,3.12.58l-.5,2.82c-.54-.25-1.25-.45-2.33-.45-3.12,0-3.91,2.7-3.91,5.81v1.08h4.86v2.78h-4.86v17.29h-3.62v-.02Z"/>
  <path d="M352.73,360.16l-2.91,8.79h-3.74l9.56-27.95h4.32l9.56,27.95h-3.87l-2.99-8.79h-9.93,0ZM361.96,357.34l-2.78-8.05c-.63-1.82-1.04-3.49-1.45-5.1h-.09c-.41,1.61-.83,3.36-1.41,5.06l-2.74,8.08h8.48Z"/>
  <path d="M389.77,339.51v24.26c0,1.79.09,3.81.16,5.18h-3.24l-.16-3.49h-.13c-1.08,2.24-3.49,3.94-6.77,3.94-4.86,0-8.64-4.11-8.64-10.2-.04-6.67,4.16-10.74,9.02-10.74,3.12,0,5.16,1.45,6.07,3.03h.09v-11.98h3.62,0ZM386.15,357.05c0-.45-.04-1.08-.16-1.54-.54-2.28-2.54-4.19-5.27-4.19-3.78,0-6.02,3.31-6.02,7.71,0,4.06,2.04,7.42,5.95,7.42,2.45,0,4.7-1.66,5.36-4.35.13-.5.16-1,.16-1.58v-3.49h0Z"/>
  <path d="M396.71,348.87l3.95,11.24c.66,1.86,1.2,3.52,1.62,5.19h.13c.46-1.66,1.04-3.32,1.7-5.19l3.91-11.24h3.82l-7.9,20.08h-3.49l-7.65-20.08h3.92Z"/>
  <path d="M428.68,364.14c0,1.74.09,3.44.29,4.81h-3.28l-.29-2.53h-.13c-1.12,1.58-3.28,2.99-6.15,2.99-4.07,0-6.15-2.86-6.15-5.76,0-4.85,4.32-7.51,12.1-7.46v-.41c0-1.61-.45-4.65-4.57-4.6-1.91,0-3.87.54-5.27,1.5l-.83-2.45c1.66-1.04,4.12-1.74,6.65-1.74,6.15,0,7.65,4.19,7.65,8.17v7.51l-.02-.02ZM425.14,358.71c-3.99-.09-8.52.62-8.52,4.52,0,2.4,1.58,3.49,3.41,3.49,2.66,0,4.36-1.66,4.95-3.36.13-.41.16-.83.16-1.16v-3.49Z"/>
  <path d="M433.99,354.31c0-2.11-.04-3.77-.16-5.43h3.24l.21,3.32h.09c1-1.86,3.33-3.73,6.65-3.73,2.78,0,7.11,1.66,7.11,8.54v11.94h-3.66v-11.57c0-3.24-1.2-5.93-4.66-5.93-2.37,0-4.24,1.7-4.91,3.73-.16.46-.25,1.08-.25,1.7v12.07h-3.66v-14.64h0Z"/>
  <path d="M470.81,368.25c-.95.45-3.08,1.16-5.77,1.16-6.07,0-10.02-4.11-10.02-10.24s4.24-10.7,10.81-10.7c2.16,0,4.07.54,5.07,1.08l-.83,2.78c-.88-.45-2.24-.95-4.24-.95-4.61,0-7.11,3.44-7.11,7.59,0,4.65,2.99,7.51,6.98,7.51,2.08,0,3.45-.5,4.49-.95l.62,2.74h0Z"/>
  <path d="M476.3,359.58c.09,4.94,3.2,6.97,6.9,6.97,2.62,0,4.24-.45,5.57-1.04l.66,2.61c-1.29.58-3.53,1.29-6.74,1.29-6.19,0-9.89-4.11-9.89-10.16s3.57-10.78,9.43-10.78c6.61,0,8.31,5.72,8.31,9.42,0,.75-.04,1.29-.13,1.7h-14.13,0ZM487.03,356.97c.04-2.28-.95-5.89-5.07-5.89-3.74,0-5.32,3.36-5.61,5.89h10.68Z"/>
  <path d="M511.84,339.51v24.26c0,1.79.09,3.81.16,5.18h-3.24l-.16-3.49h-.13c-1.08,2.24-3.49,3.94-6.77,3.94-4.86,0-8.64-4.11-8.64-10.2-.04-6.67,4.16-10.74,9.02-10.74,3.12,0,5.16,1.45,6.07,3.03h.09v-11.98h3.62,0ZM508.22,357.05c0-.45-.04-1.08-.16-1.54-.54-2.28-2.54-4.19-5.27-4.19-3.78,0-6.02,3.31-6.02,7.71,0,4.06,2.04,7.42,5.95,7.42,2.45,0,4.7-1.66,5.36-4.35.13-.5.16-1,.16-1.58v-3.49h0Z"/>
  <path d="M178.39,411.3c-1.29.66-3.99,1.33-7.4,1.33-7.9,0-13.8-4.97-13.8-14.18s5.95-14.68,14.63-14.68c3.45,0,5.7.75,6.65,1.25l-.91,2.95c-1.33-.66-3.28-1.16-5.61-1.16-6.56,0-10.93,4.19-10.93,11.53,0,6.88,3.95,11.24,10.72,11.24,2.24,0,4.49-.45,5.95-1.16l.7,2.9h0Z"/>
  <path d="M182.25,382.72h3.66v12.57h.09c.58-1.04,1.49-1.99,2.62-2.61,1.08-.62,2.37-1,3.74-1,2.7,0,7.03,1.66,7.03,8.54v11.95h-3.66v-11.53c0-3.24-1.2-5.93-4.66-5.93-2.37,0-4.2,1.66-4.91,3.61-.21.54-.25,1.08-.25,1.74v12.11h-3.66v-29.45h0Z"/>
  <path d="M204.73,398.36c0-2.36-.04-4.4-.16-6.26h3.2l.16,3.98h.13c.91-2.7,3.16-4.4,5.61-4.4.37,0,.66.04,1,.09v3.45c-.38-.09-.75-.09-1.25-.09-2.58,0-4.41,1.91-4.91,4.65-.09.5-.13,1.12-.13,1.7v10.7h-3.66v-13.81h0Z"/>
  <path d="M221.98,386.46c0,1.25-.88,2.24-2.33,2.24-1.33,0-2.2-1-2.2-2.24s.91-2.28,2.29-2.28,2.24,1,2.24,2.28ZM217.91,412.17v-20.08h3.66v20.08h-3.66Z"/>
  <path d="M226.56,408.48c1.12.66,3.03,1.41,4.86,1.41,2.62,0,3.87-1.29,3.87-2.99s-1.04-2.65-3.7-3.65c-3.66-1.33-5.36-3.27-5.36-5.68,0-3.24,2.66-5.89,6.94-5.89,2.04,0,3.82.54,4.91,1.25l-.88,2.65c-.79-.5-2.24-1.2-4.12-1.2-2.16,0-3.33,1.25-3.33,2.74,0,1.66,1.16,2.4,3.78,3.45,3.44,1.29,5.28,3.03,5.28,6.01,0,3.56-2.78,6.06-7.48,6.06-2.2,0-4.24-.58-5.65-1.41l.88-2.74h0Z"/>
  <path d="M247.33,387.29v4.81h5.23v2.78h-5.23v10.82c0,2.49.7,3.9,2.74,3.9,1,0,1.58-.09,2.12-.25l.16,2.78c-.7.25-1.83.5-3.24.5-1.7,0-3.08-.58-3.95-1.54-1-1.12-1.41-2.9-1.41-5.27v-10.95h-3.12v-2.78h3.12v-3.73l3.57-1.08h0Z"/>
  <path d="M260.18,386.46c0,1.25-.87,2.24-2.33,2.24-1.33,0-2.2-1-2.2-2.24s.91-2.28,2.29-2.28,2.24,1,2.24,2.28ZM256.1,412.17v-20.08h3.66v20.08h-3.66Z"/>
  <path d="M279.38,407.36c0,1.74.09,3.44.29,4.81h-3.28l-.29-2.53h-.13c-1.12,1.58-3.28,2.99-6.15,2.99-4.07,0-6.15-2.86-6.15-5.76,0-4.85,4.32-7.51,12.1-7.46v-.41c0-1.61-.45-4.65-4.57-4.6-1.91,0-3.87.54-5.27,1.49l-.83-2.45c1.66-1.04,4.12-1.74,6.65-1.74,6.15,0,7.65,4.19,7.65,8.17v7.51h-.02ZM275.85,401.93c-3.99-.09-8.52.62-8.52,4.52,0,2.4,1.58,3.49,3.41,3.49,2.66,0,4.36-1.66,4.95-3.36.13-.41.16-.83.16-1.16v-3.49Z"/>
  <path d="M284.7,397.54c0-2.11-.04-3.77-.16-5.44h3.24l.21,3.32h.09c1-1.86,3.33-3.73,6.65-3.73,2.78,0,7.11,1.66,7.11,8.55v11.94h-3.66v-11.57c0-3.24-1.2-5.93-4.66-5.93-2.37,0-4.24,1.7-4.91,3.73-.16.46-.25,1.08-.25,1.7v12.07h-3.66v-14.64h0Z"/>
  <path d="M315.08,407.77c1.63,1.04,3.95,1.82,6.45,1.82,3.7,0,5.86-1.95,5.86-4.77,0-2.57-1.49-4.11-5.27-5.51-4.57-1.66-7.4-4.06-7.4-7.96,0-4.36,3.62-7.59,9.06-7.59,2.83,0,4.95.66,6.15,1.36l-1,2.95c-.88-.54-2.74-1.33-5.28-1.33-3.82,0-5.28,2.28-5.28,4.19,0,2.61,1.7,3.9,5.57,5.39,4.74,1.82,7.11,4.11,7.11,8.21,0,4.31-3.16,8.09-9.77,8.09-2.7,0-5.65-.83-7.15-1.82l.95-3.03Z"/>
  <path d="M339.61,387.29v4.81h5.23v2.78h-5.23v10.82c0,2.49.7,3.9,2.74,3.9,1,0,1.58-.09,2.12-.25l.16,2.78c-.7.25-1.83.5-3.24.5-1.7,0-3.08-.58-3.95-1.54-1-1.12-1.41-2.9-1.41-5.27v-10.95h-3.12v-2.78h3.12v-3.73l3.57-1.08h0Z"/>
  <path d="M365.2,406.66c0,2.11.04,3.94.16,5.51h-3.24l-.21-3.27h-.09c-.91,1.61-3.08,3.73-6.65,3.73-3.16,0-6.94-1.78-6.94-8.79v-11.73h3.66v11.07c0,3.81,1.2,6.43,4.49,6.43,2.45,0,4.16-1.7,4.82-3.36.21-.5.34-1.16.34-1.86v-12.28h3.66v14.56Z"/>
  <path d="M388.02,382.72v24.26c0,1.78.09,3.81.16,5.18h-3.24l-.16-3.49h-.13c-1.08,2.24-3.49,3.94-6.77,3.94-4.86,0-8.64-4.11-8.64-10.2-.04-6.67,4.16-10.74,9.02-10.74,3.12,0,5.16,1.45,6.07,3.03h.09v-11.98h3.62,0ZM384.41,400.27c0-.45-.04-1.08-.16-1.54-.54-2.28-2.54-4.19-5.27-4.19-3.78,0-6.02,3.31-6.02,7.71,0,4.06,2.04,7.42,5.95,7.42,2.45,0,4.7-1.66,5.36-4.35.13-.5.16-1,.16-1.57v-3.49h0Z"/>
  <path d="M397.62,386.46c0,1.25-.88,2.24-2.33,2.24-1.33,0-2.2-1-2.2-2.24s.91-2.28,2.29-2.28,2.24,1,2.24,2.28ZM393.55,412.17v-20.08h3.66v20.08h-3.66Z"/>
  <path d="M404.73,402.8c.09,4.94,3.2,6.97,6.9,6.97,2.62,0,4.24-.45,5.57-1.04l.66,2.61c-1.29.58-3.53,1.29-6.74,1.29-6.19,0-9.89-4.11-9.89-10.16s3.57-10.78,9.43-10.78c6.61,0,8.31,5.72,8.31,9.42,0,.75-.04,1.29-.13,1.7h-14.13,0ZM415.45,400.19c.04-2.28-.95-5.89-5.07-5.89-3.74,0-5.32,3.36-5.61,5.89h10.68Z"/>
  <path d="M422.44,408.48c1.13.66,3.03,1.41,4.86,1.41,2.62,0,3.87-1.29,3.87-2.99s-1.04-2.65-3.7-3.65c-3.66-1.33-5.36-3.27-5.36-5.68,0-3.24,2.66-5.89,6.94-5.89,2.04,0,3.82.54,4.91,1.25l-.88,2.65c-.79-.5-2.24-1.2-4.12-1.2-2.16,0-3.32,1.25-3.32,2.74,0,1.66,1.16,2.4,3.78,3.45,3.45,1.29,5.28,3.03,5.28,6.01,0,3.56-2.78,6.06-7.49,6.06-2.2,0-4.24-.58-5.65-1.41l.88-2.74h0Z"/>
</svg>