<?xml version="1.0" encoding="UTF-8"?>
<svg id="Layer_1" data-name="Layer 1" xmlns="http://www.w3.org/2000/svg" viewBox="0 0 1000 1000">
  <defs>
    <style>
      .cls-1 {
        fill: #1a2549;
      }
    </style>
  </defs>
  <path class="cls-1" d="M203.76,564.63h-16.92v108.62h16.92v-108.62Z"/>
  <path class="cls-1" d="M251.73,564.63h-34.56v108.62h34.56v-108.62Z"/>
  <path class="cls-1" d="M320.87,264.38v-2.16h-1.15l-.06-1.47h-1.15l-.06-2.34h-1.13v-21.29h7.52c.13.28.25.55.25.67v1.15h4.58v-.99c.12-.2.4-.57.61-.86.85-1.14,1.91-2.55,1.91-3.98s-.98-2.63-1.76-3.67c-.29-.37-.71-.93-.76-1.02v-1.15h-4.58v1.15c0,.25-.08.49-.22.79h-7.56v-9.56c.29-.14.61-.28.72-.29h1.15v-4.58h-.99c-.2-.11-.57-.4-.86-.61-1.14-.85-2.55-1.91-3.98-1.91s-2.63.98-3.66,1.76c-.37.29-.93.71-1.02.76h-1.15v4.58h1.15c.23,0,.45.07.72.2v9.66h-7.42c-.15-.31-.31-.65-.31-.79v-1.15h-4.58v.99c-.11.2-.4.57-.61.86-.85,1.14-1.91,2.55-1.91,3.98s.98,2.63,1.76,3.67c.29.37.71.93.76,1.02v1.15h4.58v-1.15c0-.22.06-.43.16-.67h7.57v21.29h-1.31v2.34h-1.21v1.47h-1.21v2.7c-85.79,6.45-138.32,69.32-138.32,145.95,0,2.31-.09,4.6-.13,6.87h-.83v.12c-3.29,0-5.94,2.67-5.94,5.94s2.67,5.94,5.94,5.94v25.59c-3.29,0-5.94,2.67-5.94,5.94s2.67,5.94,5.94,5.94c.22,0,.44-.05.64-.07v.13h17.91v64.19h-85.6c-42.31,0-25.39,25.39-50.78,25.39v9.17h50.78v107.22h44.44v-107.22h11.28v107.22h18.34v-116.41c23.01-.47,24.16-23.42,43.99-25.24h31.74v-64.32h68.85v-40.91h-49l8.41-5.35v-23.24c0-50.63,43.45-91.68,97.79-91.68,39.47,0,73.64,23.62,89.32,54.98-21.28-56.25-77.52-96.5-143.66-96.7h0Z"/>
  <path class="cls-1" d="M374.99,562.43c-1.37-1.5-3.35-3.08-5.95-4.72-2.6-1.78-5.67-3.42-9.23-4.92-3.56-1.5-7.38-2.73-11.49-3.69-4.1-.96-8.34-1.44-12.72-1.44-9.57,0-16.68,1.78-21.33,5.33-4.65,3.56-6.97,8.48-6.97,14.77,0,4.65,1.3,8.34,3.9,11.08,2.6,2.6,6.56,4.79,11.9,6.56,5.33,1.78,12.03,3.69,20.1,5.74,9.85,2.32,18.39,5.13,25.64,8.41,7.25,3.14,12.79,7.38,16.61,12.72,3.83,5.33,5.74,12.37,5.74,21.13,0,7.38-1.37,13.74-4.1,19.07s-6.56,9.71-11.49,13.13c-4.92,3.28-10.6,5.74-17.02,7.38-6.43,1.5-13.33,2.26-20.72,2.26s-14.49-.75-21.74-2.26c-7.11-1.5-13.95-3.69-20.51-6.56-6.43-3.01-12.38-6.63-17.84-10.87l10.46-19.69c1.78,1.78,4.31,3.76,7.59,5.95,3.42,2.05,7.32,4.03,11.69,5.95,4.51,1.91,9.37,3.56,14.56,4.92,5.33,1.23,10.73,1.85,16.2,1.85,9.16,0,16.13-1.57,20.92-4.72,4.92-3.28,7.38-7.93,7.38-13.95,0-4.92-1.57-8.82-4.72-11.69-3.14-3.01-7.73-5.54-13.74-7.59-6.02-2.05-13.19-4.1-21.54-6.15-9.57-2.6-17.57-5.4-24-8.41-6.43-3.14-11.28-7.11-14.56-11.9-3.14-4.92-4.72-11.14-4.72-18.66,0-9.57,2.33-17.64,6.97-24.2,4.65-6.7,10.94-11.69,18.87-14.97,8.07-3.42,17.09-5.13,27.07-5.13,6.56,0,12.78.75,18.66,2.26,5.88,1.37,11.35,3.28,16.41,5.74,5.2,2.46,9.91,5.26,14.15,8.41l-10.46,18.87Z"/>
  <path class="cls-1" d="M447.12,528.18h21.74l56.61,145.62h-24.2l-15.38-39.58h-56.2l-15.18,39.58h-24.41l57.02-145.62ZM481.38,617.19l-23.38-63.79-24.2,63.79h47.58Z"/>
  <path class="cls-1" d="M537.33,673.8v-145.62h22.97v145.62h-22.97Z"/>
  <path class="cls-1" d="M629.1,528.18h21.74l56.61,145.62h-24.2l-15.38-39.58h-56.2l-15.18,39.58h-24.41l57.02-145.62ZM663.36,617.19l-23.38-63.79-24.2,63.79h47.58Z"/>
  <path class="cls-1" d="M699.18,599.96c0-8.89,1.57-17.57,4.72-26.05,3.14-8.62,7.73-16.41,13.74-23.38,6.15-7.11,13.6-12.72,22.36-16.82,8.75-4.24,18.66-6.36,29.74-6.36,13.13,0,24.48,3.01,34.05,9.03,9.57,5.88,16.68,13.47,21.33,22.77l-18.05,12.1c-2.73-5.88-6.22-10.53-10.46-13.95-4.1-3.42-8.61-5.81-13.54-7.18-4.79-1.37-9.5-2.05-14.15-2.05-7.66,0-14.36,1.57-20.1,4.72-5.74,3.01-10.6,7.04-14.56,12.1-3.83,5.06-6.77,10.73-8.82,17.02-1.91,6.29-2.87,12.58-2.87,18.87,0,6.97,1.16,13.74,3.49,20.31,2.33,6.43,5.54,12.17,9.64,17.23,4.24,4.92,9.23,8.82,14.97,11.69,5.74,2.87,12.03,4.31,18.87,4.31,4.65,0,9.5-.82,14.56-2.46,5.06-1.64,9.71-4.17,13.95-7.59,4.38-3.55,7.79-8.2,10.26-13.95l19.07,10.87c-3.01,7.25-7.73,13.4-14.15,18.46-6.29,5.06-13.4,8.89-21.33,11.49-7.79,2.6-15.52,3.9-23.18,3.9-10.26,0-19.62-2.12-28.1-6.36-8.48-4.37-15.79-10.12-21.95-17.23-6.15-7.25-10.94-15.31-14.36-24.2-3.42-9.02-5.13-18.12-5.13-27.28Z"/>
  <path class="cls-1" d="M933.9,562.43c-1.37-1.5-3.35-3.08-5.95-4.72-2.6-1.78-5.67-3.42-9.23-4.92-3.56-1.5-7.38-2.73-11.49-3.69-4.1-.96-8.34-1.44-12.72-1.44-9.57,0-16.68,1.78-21.33,5.33-4.65,3.56-6.97,8.48-6.97,14.77,0,4.65,1.3,8.34,3.9,11.08,2.6,2.6,6.56,4.79,11.9,6.56,5.33,1.78,12.03,3.69,20.1,5.74,9.84,2.32,18.39,5.13,25.64,8.41,7.25,3.14,12.78,7.38,16.61,12.72,3.83,5.33,5.74,12.37,5.74,21.13,0,7.38-1.37,13.74-4.1,19.07-2.73,5.33-6.56,9.71-11.49,13.13-4.92,3.28-10.6,5.74-17.02,7.38-6.43,1.5-13.33,2.26-20.72,2.26s-14.49-.75-21.74-2.26c-7.11-1.5-13.95-3.69-20.51-6.56-6.43-3.01-12.37-6.63-17.84-10.87l10.46-19.69c1.78,1.78,4.31,3.76,7.59,5.95,3.42,2.05,7.32,4.03,11.69,5.95,4.51,1.91,9.37,3.56,14.56,4.92,5.33,1.23,10.73,1.85,16.2,1.85,9.16,0,16.13-1.57,20.92-4.72,4.92-3.28,7.38-7.93,7.38-13.95,0-4.92-1.57-8.82-4.72-11.69-3.14-3.01-7.73-5.54-13.74-7.59-6.02-2.05-13.19-4.1-21.54-6.15-9.57-2.6-17.57-5.4-24-8.41-6.43-3.14-11.28-7.11-14.56-11.9-3.14-4.92-4.72-11.14-4.72-18.66,0-9.57,2.32-17.64,6.97-24.2,4.65-6.7,10.94-11.69,18.87-14.97,8.07-3.42,17.09-5.13,27.07-5.13,6.56,0,12.79.75,18.66,2.26,5.88,1.37,11.35,3.28,16.41,5.74,5.2,2.46,9.91,5.26,14.15,8.41l-10.46,18.87Z"/>
  <path class="cls-1" d="M139.61,781.7v5.2h-40.03v-59.58h39.27v5.2h-33.4v21.48h29.12v4.95h-29.12v22.74h34.15Z"/>
  <path class="cls-1" d="M150.05,743.18l12.84,17.12.67,1.26.67-1.26,12.75-17.12h6.46l-16.61,21.98,16.61,21.73h-6.46l-12.75-17.03-.67-1.18-.67,1.18-12.75,17.03h-6.46l16.53-21.73-16.53-21.98h6.38Z"/>
  <path class="cls-1" d="M207.14,787.74c-3.19,0-6.13-.59-8.81-1.76-2.63-1.23-4.95-2.91-6.96-5.03-1.96-2.13-3.5-4.56-4.61-7.3-1.06-2.74-1.59-5.65-1.59-8.73,0-4.14.92-7.92,2.77-11.33,1.85-3.41,4.42-6.13,7.72-8.14,3.3-2.01,7.1-3.02,11.41-3.02,4.08,0,7.69.95,10.82,2.85,3.13,1.85,5.45,4.36,6.96,7.55l-5.54,1.76c-1.23-2.24-2.97-3.97-5.2-5.2-2.18-1.29-4.61-1.93-7.3-1.93-2.91,0-5.57.76-7.97,2.27-2.4,1.51-4.34,3.58-5.79,6.21-1.4,2.63-2.1,5.62-2.1,8.98s.73,6.29,2.18,8.98c1.46,2.68,3.38,4.84,5.79,6.46,2.41,1.57,5.06,2.35,7.97,2.35,1.9,0,3.72-.33,5.45-1.01,1.79-.67,3.33-1.57,4.61-2.69,1.34-1.17,2.24-2.43,2.68-3.78l5.62,1.68c-.78,2.07-2.1,3.94-3.94,5.62-1.79,1.62-3.91,2.91-6.38,3.86-2.41.9-5.01,1.34-7.8,1.34Z"/>
  <path class="cls-1" d="M251.86,787.74c-3.13,0-6.04-.59-8.73-1.76-2.69-1.23-5.01-2.88-6.96-4.95-1.96-2.13-3.5-4.56-4.61-7.3-1.06-2.74-1.59-5.68-1.59-8.81,0-4.08.92-7.83,2.77-11.24,1.9-3.41,4.5-6.13,7.8-8.14,3.3-2.07,7.05-3.1,11.25-3.1s8.05,1.03,11.24,3.1c3.24,2.07,5.79,4.81,7.64,8.22,1.85,3.36,2.77,7.05,2.77,11.08v1.34c0,.39-.03.7-.08.92h-37.42c.28,3.13,1.15,5.93,2.6,8.39,1.51,2.41,3.44,4.34,5.79,5.79,2.41,1.4,5.01,2.1,7.8,2.1s5.54-.73,8.06-2.18c2.57-1.45,4.36-3.36,5.37-5.71l4.95,1.34c-.89,2.07-2.27,3.94-4.11,5.62-1.85,1.68-4.03,2.99-6.55,3.94-2.46.9-5.12,1.34-7.97,1.34ZM235.75,762.98h32.3c-.22-3.19-1.09-5.99-2.6-8.39-1.45-2.41-3.38-4.28-5.79-5.62-2.35-1.4-4.95-2.1-7.8-2.1s-5.45.7-7.8,2.1c-2.35,1.34-4.28,3.24-5.79,5.71-1.45,2.41-2.29,5.17-2.52,8.31Z"/>
  <path class="cls-1" d="M281.65,725.64h5.71v51.35c0,2.18.39,3.61,1.17,4.28.78.67,1.73,1.01,2.85,1.01,1.01,0,2.01-.11,3.02-.34,1.01-.22,1.87-.45,2.6-.67l1.01,4.61c-1.06.45-2.38.81-3.94,1.09-1.51.28-2.82.42-3.94.42-2.57,0-4.64-.76-6.21-2.27-1.51-1.51-2.27-3.58-2.27-6.21v-53.28Z"/>
  <path class="cls-1" d="M303.67,725.64h5.71v51.35c0,2.18.39,3.61,1.18,4.28.78.67,1.73,1.01,2.85,1.01,1.01,0,2.01-.11,3.02-.34,1.01-.22,1.87-.45,2.6-.67l1.01,4.61c-1.06.45-2.38.81-3.94,1.09-1.51.28-2.82.42-3.94.42-2.57,0-4.64-.76-6.21-2.27-1.51-1.51-2.27-3.58-2.27-6.21v-53.28Z"/>
  <path class="cls-1" d="M344.32,787.74c-3.13,0-6.04-.59-8.73-1.76-2.69-1.23-5.01-2.88-6.96-4.95-1.96-2.13-3.5-4.56-4.61-7.3-1.06-2.74-1.59-5.68-1.59-8.81,0-4.08.92-7.83,2.77-11.24,1.9-3.41,4.5-6.13,7.8-8.14,3.3-2.07,7.05-3.1,11.24-3.1s8.06,1.03,11.24,3.1c3.24,2.07,5.79,4.81,7.64,8.22,1.85,3.36,2.77,7.05,2.77,11.08v1.34c0,.39-.03.7-.08.92h-37.42c.28,3.13,1.15,5.93,2.6,8.39,1.51,2.41,3.44,4.34,5.79,5.79,2.41,1.4,5.01,2.1,7.8,2.1s5.54-.73,8.05-2.18c2.57-1.45,4.36-3.36,5.37-5.71l4.95,1.34c-.89,2.07-2.27,3.94-4.11,5.62s-4.03,2.99-6.54,3.94c-2.46.9-5.12,1.34-7.97,1.34ZM328.21,762.98h32.3c-.22-3.19-1.09-5.99-2.6-8.39-1.45-2.41-3.38-4.28-5.79-5.62-2.35-1.4-4.95-2.1-7.8-2.1s-5.45.7-7.8,2.1c-2.35,1.34-4.28,3.24-5.79,5.71-1.45,2.41-2.29,5.17-2.52,8.31Z"/>
  <path class="cls-1" d="M410.6,786.9h-5.71v-24.42c0-5.15-.76-8.9-2.27-11.25-1.51-2.4-3.89-3.61-7.13-3.61-2.24,0-4.45.56-6.63,1.68-2.18,1.06-4.11,2.55-5.79,4.45-1.62,1.85-2.8,3.97-3.53,6.38v26.77h-5.71v-43.72h5.2v9.9c1.17-2.12,2.71-3.97,4.61-5.54,1.9-1.62,4.06-2.88,6.46-3.78,2.41-.9,4.89-1.34,7.47-1.34,2.41,0,4.45.45,6.13,1.34,1.68.89,3.02,2.18,4.03,3.86,1.01,1.62,1.73,3.61,2.18,5.96.45,2.29.67,4.87.67,7.72v25.59Z"/>
  <path class="cls-1" d="M440.89,787.74c-3.19,0-6.13-.59-8.81-1.76-2.63-1.23-4.95-2.91-6.96-5.03-1.96-2.13-3.5-4.56-4.61-7.3-1.06-2.74-1.59-5.65-1.59-8.73,0-4.14.92-7.92,2.77-11.33,1.85-3.41,4.42-6.13,7.72-8.14,3.3-2.01,7.1-3.02,11.41-3.02,4.08,0,7.69.95,10.82,2.85,3.13,1.85,5.45,4.36,6.96,7.55l-5.54,1.76c-1.23-2.24-2.96-3.97-5.2-5.2-2.18-1.29-4.61-1.93-7.3-1.93-2.91,0-5.57.76-7.97,2.27-2.41,1.51-4.34,3.58-5.79,6.21-1.4,2.63-2.1,5.62-2.1,8.98s.73,6.29,2.18,8.98c1.45,2.68,3.38,4.84,5.79,6.46,2.41,1.57,5.06,2.35,7.97,2.35,1.9,0,3.72-.33,5.45-1.01,1.79-.67,3.33-1.57,4.61-2.69,1.34-1.17,2.24-2.43,2.69-3.78l5.62,1.68c-.78,2.07-2.1,3.94-3.94,5.62-1.79,1.62-3.92,2.91-6.38,3.86-2.4.9-5.01,1.34-7.8,1.34Z"/>
  <path class="cls-1" d="M485.61,787.74c-3.13,0-6.04-.59-8.73-1.76-2.68-1.23-5.01-2.88-6.96-4.95-1.96-2.13-3.5-4.56-4.61-7.3-1.06-2.74-1.59-5.68-1.59-8.81,0-4.08.92-7.83,2.77-11.24,1.9-3.41,4.5-6.13,7.8-8.14,3.3-2.07,7.05-3.1,11.24-3.1s8.06,1.03,11.24,3.1c3.25,2.07,5.79,4.81,7.64,8.22,1.85,3.36,2.77,7.05,2.77,11.08v1.34c0,.39-.03.7-.08.92h-37.42c.28,3.13,1.15,5.93,2.6,8.39,1.51,2.41,3.44,4.34,5.79,5.79,2.4,1.4,5.01,2.1,7.8,2.1s5.54-.73,8.06-2.18c2.57-1.45,4.36-3.36,5.37-5.71l4.95,1.34c-.9,2.07-2.27,3.94-4.11,5.62-1.85,1.68-4.03,2.99-6.54,3.94-2.46.9-5.12,1.34-7.97,1.34ZM469.5,762.98h32.31c-.22-3.19-1.09-5.99-2.6-8.39-1.45-2.41-3.38-4.28-5.79-5.62-2.35-1.4-4.95-2.1-7.8-2.1s-5.45.7-7.8,2.1c-2.35,1.34-4.28,3.24-5.79,5.71-1.45,2.41-2.29,5.17-2.52,8.31Z"/>
  <path class="cls-1" d="M536.87,786.9v-59.58h39.1v5.2h-33.23v21.9h28.03v4.87h-28.03v27.61h-5.87Z"/>
  <path class="cls-1" d="M600.11,787.74c-3.13,0-6.04-.59-8.73-1.76-2.63-1.23-4.92-2.88-6.88-4.95-1.9-2.13-3.38-4.53-4.45-7.22-1.06-2.74-1.59-5.62-1.59-8.64s.53-6.04,1.59-8.73c1.06-2.74,2.57-5.15,4.53-7.22,1.96-2.13,4.25-3.78,6.88-4.95,2.68-1.23,5.59-1.85,8.73-1.85s6.01.61,8.64,1.85c2.63,1.17,4.92,2.82,6.88,4.95,1.96,2.07,3.47,4.47,4.53,7.22,1.06,2.68,1.59,5.59,1.59,8.73s-.53,5.9-1.59,8.64c-1.06,2.69-2.57,5.09-4.53,7.22-1.9,2.07-4.19,3.72-6.88,4.95-2.63,1.18-5.54,1.76-8.73,1.76ZM584.25,765.25c0,3.24.7,6.21,2.1,8.89,1.45,2.63,3.38,4.73,5.79,6.29,2.41,1.51,5.06,2.27,7.97,2.27s5.57-.78,7.97-2.35c2.41-1.57,4.34-3.69,5.79-6.38,1.46-2.74,2.18-5.71,2.18-8.89s-.73-6.21-2.18-8.9c-1.45-2.68-3.38-4.81-5.79-6.38s-5.06-2.35-7.97-2.35-5.57.81-7.97,2.43c-2.35,1.62-4.25,3.78-5.71,6.46-1.45,2.63-2.18,5.59-2.18,8.9Z"/>
  <path class="cls-1" d="M652.36,748.22c-3.8.11-7.16,1.17-10.07,3.19-2.85,2.01-4.87,4.78-6.04,8.31v27.19h-5.71v-43.72h5.37v10.49c1.51-3.08,3.5-5.57,5.96-7.47,2.52-1.9,5.17-2.96,7.97-3.19.56-.06,1.03-.08,1.43-.08.45,0,.81.03,1.09.08v5.2Z"/>
  <path class="cls-1" d="M713.7,738.48c-.84-.95-1.82-1.79-2.94-2.52-1.12-.78-2.38-1.46-3.78-2.01-1.4-.56-2.91-1.01-4.53-1.34-1.57-.34-3.24-.5-5.03-.5-5.2,0-9.03,1.01-11.5,3.02-2.41,1.96-3.61,4.64-3.61,8.06,0,2.35.56,4.19,1.68,5.54,1.17,1.34,2.99,2.43,5.45,3.27,2.46.84,5.59,1.71,9.4,2.6,4.25.89,7.92,1.96,10.99,3.19,3.08,1.23,5.45,2.91,7.13,5.03,1.68,2.07,2.52,4.89,2.52,8.47,0,2.74-.53,5.12-1.59,7.13-1.06,2.01-2.55,3.69-4.45,5.03-1.9,1.34-4.17,2.35-6.8,3.02-2.63.62-5.51.92-8.64.92s-6.04-.31-8.9-.92c-2.8-.67-5.45-1.62-7.97-2.85-2.52-1.29-4.87-2.91-7.05-4.87l2.94-4.78c1.06,1.12,2.32,2.18,3.78,3.19,1.51.95,3.16,1.82,4.95,2.6,1.85.78,3.8,1.4,5.87,1.85,2.13.39,4.31.59,6.55.59,4.75,0,8.45-.87,11.08-2.6,2.68-1.74,4.03-4.31,4.03-7.72,0-2.46-.67-4.42-2.01-5.87-1.34-1.51-3.36-2.74-6.04-3.69-2.69-.95-5.99-1.87-9.9-2.77-4.14-.95-7.64-2.01-10.49-3.19-2.85-1.17-5.01-2.71-6.46-4.61-1.4-1.96-2.1-4.53-2.1-7.72,0-3.69.89-6.8,2.68-9.31,1.85-2.57,4.36-4.5,7.55-5.79,3.19-1.34,6.85-2.01,10.99-2.01,2.63,0,5.06.28,7.3.84,2.29.5,4.39,1.26,6.29,2.27,1.96,1.01,3.78,2.27,5.45,3.78l-2.85,4.7Z"/>
  <path class="cls-1" d="M746.71,787.74c-3.13,0-6.04-.59-8.73-1.76-2.69-1.23-5.01-2.88-6.96-4.95-1.96-2.13-3.5-4.56-4.61-7.3-1.06-2.74-1.59-5.68-1.59-8.81,0-4.08.92-7.83,2.77-11.24,1.9-3.41,4.5-6.13,7.8-8.14,3.3-2.07,7.05-3.1,11.25-3.1s8.05,1.03,11.24,3.1c3.24,2.07,5.79,4.81,7.64,8.22,1.85,3.36,2.77,7.05,2.77,11.08v1.34c0,.39-.03.7-.08.92h-37.42c.28,3.13,1.15,5.93,2.6,8.39,1.51,2.41,3.44,4.34,5.79,5.79,2.41,1.4,5.01,2.1,7.8,2.1s5.54-.73,8.06-2.18c2.57-1.45,4.36-3.36,5.37-5.71l4.95,1.34c-.89,2.07-2.27,3.94-4.11,5.62s-4.03,2.99-6.55,3.94c-2.46.9-5.12,1.34-7.97,1.34ZM730.6,762.98h32.31c-.22-3.19-1.09-5.99-2.6-8.39-1.45-2.41-3.38-4.28-5.79-5.62-2.35-1.4-4.95-2.1-7.8-2.1s-5.45.7-7.8,2.1c-2.35,1.34-4.28,3.24-5.79,5.71-1.45,2.41-2.29,5.17-2.52,8.31Z"/>
  <path class="cls-1" d="M798.06,748.22c-3.8.11-7.16,1.17-10.07,3.19-2.85,2.01-4.87,4.78-6.04,8.31v27.19h-5.71v-43.72h5.37v10.49c1.51-3.08,3.5-5.57,5.96-7.47,2.52-1.9,5.17-2.96,7.97-3.19.56-.06,1.03-.08,1.43-.08.45,0,.81.03,1.09.08v5.2Z"/>
  <path class="cls-1" d="M817.83,786.9l-17.7-43.72h5.96l14.94,38.01,15.02-38.01h5.62l-17.7,43.72h-6.13Z"/>
  <path class="cls-1" d="M848.72,786.9v-43.72h5.71v43.72h-5.71ZM848.72,734.04v-8.39h5.71v8.39h-5.71Z"/>
  <path class="cls-1" d="M885.12,787.74c-3.19,0-6.13-.59-8.81-1.76-2.63-1.23-4.95-2.91-6.96-5.03-1.96-2.13-3.5-4.56-4.61-7.3-1.06-2.74-1.59-5.65-1.59-8.73,0-4.14.92-7.92,2.77-11.33,1.85-3.41,4.42-6.13,7.72-8.14,3.3-2.01,7.11-3.02,11.41-3.02,4.08,0,7.69.95,10.82,2.85,3.13,1.85,5.45,4.36,6.96,7.55l-5.54,1.76c-1.23-2.24-2.96-3.97-5.2-5.2-2.18-1.29-4.61-1.93-7.3-1.93-2.91,0-5.57.76-7.97,2.27-2.41,1.51-4.34,3.58-5.79,6.21-1.4,2.63-2.1,5.62-2.1,8.98s.73,6.29,2.18,8.98c1.45,2.68,3.38,4.84,5.79,6.46,2.41,1.57,5.06,2.35,7.97,2.35,1.9,0,3.72-.33,5.45-1.01,1.79-.67,3.33-1.57,4.61-2.69,1.34-1.17,2.24-2.43,2.69-3.78l5.62,1.68c-.78,2.07-2.1,3.94-3.94,5.62-1.79,1.62-3.92,2.91-6.38,3.86-2.4.9-5.01,1.34-7.8,1.34Z"/>
  <path class="cls-1" d="M929.84,787.74c-3.13,0-6.04-.59-8.73-1.76-2.69-1.23-5.01-2.88-6.96-4.95-1.96-2.13-3.5-4.56-4.61-7.3-1.06-2.74-1.59-5.68-1.59-8.81,0-4.08.92-7.83,2.77-11.24,1.9-3.41,4.5-6.13,7.8-8.14,3.3-2.07,7.05-3.1,11.24-3.1s8.06,1.03,11.24,3.1c3.24,2.07,5.79,4.81,7.64,8.22,1.85,3.36,2.77,7.05,2.77,11.08v1.34c0,.39-.03.7-.08.92h-37.42c.28,3.13,1.15,5.93,2.6,8.39,1.51,2.41,3.44,4.34,5.79,5.79,2.41,1.4,5.01,2.1,7.8,2.1s5.54-.73,8.06-2.18c2.57-1.45,4.36-3.36,5.37-5.71l4.95,1.34c-.9,2.07-2.27,3.94-4.11,5.62s-4.03,2.99-6.54,3.94c-2.46.9-5.12,1.34-7.97,1.34ZM913.73,762.98h32.3c-.22-3.19-1.09-5.99-2.6-8.39-1.45-2.41-3.38-4.28-5.79-5.62-2.35-1.4-4.95-2.1-7.8-2.1s-5.45.7-7.8,2.1c-2.35,1.34-4.28,3.24-5.79,5.71-1.46,2.41-2.29,5.17-2.52,8.31Z"/>
</svg>